<svg version="1.1" preserveAspectRatio="none" xmlns="http://www.w3.org/2000/svg" width="500" height="500" viewBox="0 0 500 500"><rect width="100%" height="100%" fill="#F1F1F1" fill-opacity="1"/><svg viewBox="273.082 877.1519 224.6671 262.1099" width="285.43044081890844" height="333" x="107.2848px" y="83.5px" xmlns="http://www.w3.org/2000/svg" xmlns:xlink="http://www.w3.org/1999/xlink" preserveAspectRatio="none"><defs></defs><style>.companyName {fill:#3B3B6B;fill-opacity:1;}.icon1 {fill:#D24848;fill-opacity:1;}.icon2 {fill:#CCAF60;fill-opacity:1;}.icon3 {fill:#797468;fill-opacity:1;}.icon3-str {stroke:#797468;stroke-opacity:1;}.text {fill:#D24848;fill-opacity:1;}</style><g opacity="1" transform="rotate(0 288.0422 1120.0618)">
<svg width="194.7468" height="19.2" x="288.0422" y="1120.0618" version="1.1" preserveAspectRatio="none" viewBox="-0.36 -29.68 379.71999999999997 37.44">
  <g transform="matrix(1 0 0 1 0 0)" class="text"><path id="id-6izo4zJp14" d="M7.80 0.32Q5.28 0.32 3.12-0.74Q0.96-1.80-0.36-3.72L-0.36-3.72L1.96-6.44Q4.28-3.12 7.80-3.12L7.80-3.12Q10.16-3.12 11.38-4.56Q12.60-6 12.60-8.80L12.60-8.80L12.60-24.52L2.48-24.52L2.48-28L16.56-28L16.56-9Q16.56-4.36 14.34-2.02Q12.12 0.32 7.80 0.32L7.80 0.32Z M37.88-21.40Q42.28-21.40 44.62-19.24Q46.96-17.08 46.96-12.80L46.96-12.80L46.96 0L43.32 0L43.32-2.80Q42.36-1.32 40.58-0.54Q38.80 0.24 36.36 0.24L36.36 0.24Q32.80 0.24 30.66-1.48Q28.52-3.20 28.52-6L28.52-6Q28.52-8.80 30.56-10.50Q32.60-12.20 37.04-12.20L37.04-12.20L43.12-12.20L43.12-12.96Q43.12-15.44 41.68-16.76Q40.24-18.08 37.44-18.08L37.44-18.08Q35.56-18.08 33.76-17.46Q31.96-16.84 30.72-15.80L30.72-15.80L29.12-18.68Q30.76-20 33.04-20.70Q35.32-21.40 37.88-21.40L37.88-21.40ZM37-2.72Q39.20-2.72 40.80-3.70Q42.40-4.68 43.12-6.48L43.12-6.48L43.12-9.44L37.20-9.44Q32.32-9.44 32.32-6.16L32.32-6.16Q32.32-4.56 33.56-3.64Q34.80-2.72 37-2.72L37-2.72Z M74.68-21.20L78.44-21.20L69.16 0L65.24 0L55.96-21.20L59.96-21.20L67.24-4.20L74.68-21.20Z M95.08-21.40Q99.48-21.40 101.82-19.24Q104.16-17.08 104.16-12.80L104.16-12.80L104.16 0L100.52 0L100.52-2.80Q99.56-1.32 97.78-0.54Q96 0.24 93.56 0.24L93.56 0.24Q90 0.24 87.86-1.48Q85.72-3.20 85.72-6L85.72-6Q85.72-8.80 87.76-10.50Q89.80-12.20 94.24-12.20L94.24-12.20L100.32-12.20L100.32-12.96Q100.32-15.44 98.88-16.76Q97.44-18.08 94.64-18.08L94.64-18.08Q92.76-18.08 90.96-17.46Q89.16-16.84 87.92-15.80L87.92-15.80L86.32-18.68Q87.96-20 90.24-20.70Q92.52-21.40 95.08-21.40L95.08-21.40ZM94.20-2.72Q96.40-2.72 98-3.70Q99.60-4.68 100.32-6.48L100.32-6.48L100.32-9.44L94.40-9.44Q89.52-9.44 89.52-6.16L89.52-6.16Q89.52-4.56 90.76-3.64Q92-2.72 94.20-2.72L94.20-2.72Z M150.20-29.68L154.04-29.68L154.04 0L150.36 0L150.36-3.36Q149.08-1.60 147.12-0.68Q145.16 0.24 142.80 0.24L142.80 0.24Q139.72 0.24 137.28-1.12Q134.84-2.48 133.46-4.94Q132.08-7.40 132.08-10.60L132.08-10.60Q132.08-13.80 133.46-16.24Q134.84-18.68 137.28-20.04Q139.72-21.40 142.80-21.40L142.80-21.40Q145.08-21.40 147-20.54Q148.92-19.68 150.20-18L150.20-18L150.20-29.68ZM143.12-3.12Q145.12-3.12 146.76-4.06Q148.40-5 149.32-6.70Q150.24-8.40 150.24-10.60L150.24-10.60Q150.24-12.80 149.32-14.50Q148.40-16.20 146.76-17.12Q145.12-18.04 143.12-18.04L143.12-18.04Q141.08-18.04 139.46-17.12Q137.84-16.20 136.90-14.50Q135.96-12.80 135.96-10.60L135.96-10.60Q135.96-8.40 136.90-6.70Q137.84-5 139.46-4.06Q141.08-3.12 143.12-3.12L143.12-3.12Z M186.48-10.48Q186.48-10.04 186.40-9.32L186.40-9.32L169.20-9.32Q169.56-6.52 171.66-4.82Q173.76-3.12 176.88-3.12L176.88-3.12Q180.68-3.12 183-5.68L183-5.68L185.12-3.20Q183.68-1.52 181.54-0.64Q179.40 0.24 176.76 0.24L176.76 0.24Q173.40 0.24 170.80-1.14Q168.20-2.52 166.78-5Q165.36-7.48 165.36-10.60L165.36-10.60Q165.36-13.68 166.74-16.16Q168.12-18.64 170.54-20.02Q172.96-21.40 176-21.40L176-21.40Q179.04-21.40 181.42-20.02Q183.80-18.64 185.14-16.16Q186.48-13.68 186.48-10.48L186.48-10.48ZM176-18.16Q173.24-18.16 171.38-16.48Q169.52-14.80 169.20-12.08L169.20-12.08L182.80-12.08Q182.48-14.76 180.62-16.46Q178.76-18.16 176-18.16L176-18.16Z M212.40-21.20L216.16-21.20L206.88 0L202.96 0L193.68-21.20L197.68-21.20L204.96-4.20L212.40-21.20Z M244.32-10.48Q244.32-10.04 244.24-9.32L244.24-9.32L227.04-9.32Q227.40-6.52 229.50-4.82Q231.60-3.12 234.72-3.12L234.72-3.12Q238.52-3.12 240.84-5.68L240.84-5.68L242.96-3.20Q241.52-1.52 239.38-0.64Q237.24 0.24 234.60 0.24L234.60 0.24Q231.24 0.24 228.64-1.14Q226.04-2.52 224.62-5Q223.20-7.48 223.20-10.60L223.20-10.60Q223.20-13.68 224.58-16.16Q225.96-18.64 228.38-20.02Q230.80-21.40 233.84-21.40L233.84-21.40Q236.88-21.40 239.26-20.02Q241.64-18.64 242.98-16.16Q244.32-13.68 244.32-10.48L244.32-10.48ZM233.84-18.16Q231.08-18.16 229.22-16.48Q227.36-14.80 227.04-12.08L227.04-12.08L240.64-12.08Q240.32-14.76 238.46-16.46Q236.60-18.16 233.84-18.16L233.84-18.16Z M255.64 0L255.64-29.68L259.48-29.68L259.48 0L255.64 0Z M281.88 0.24Q278.72 0.24 276.20-1.16Q273.68-2.56 272.26-5.02Q270.84-7.48 270.84-10.60L270.84-10.60Q270.84-13.72 272.26-16.18Q273.68-18.64 276.20-20.02Q278.72-21.40 281.88-21.40L281.88-21.40Q285.04-21.40 287.54-20.02Q290.04-18.64 291.46-16.18Q292.88-13.72 292.88-10.60L292.88-10.60Q292.88-7.48 291.46-5.02Q290.04-2.56 287.54-1.16Q285.04 0.24 281.88 0.24L281.88 0.24ZM281.88-3.12Q283.92-3.12 285.54-4.06Q287.16-5 288.08-6.70Q289-8.40 289-10.60L289-10.60Q289-12.80 288.08-14.50Q287.16-16.20 285.54-17.12Q283.92-18.04 281.88-18.04L281.88-18.04Q279.84-18.04 278.22-17.12Q276.60-16.20 275.66-14.50Q274.72-12.80 274.72-10.60L274.72-10.60Q274.72-8.40 275.66-6.70Q276.60-5 278.22-4.06Q279.84-3.12 281.88-3.12L281.88-3.12Z M315.44-21.40Q318.52-21.40 320.96-20.04Q323.40-18.68 324.78-16.24Q326.16-13.80 326.16-10.60L326.16-10.60Q326.16-7.40 324.78-4.94Q323.40-2.48 320.96-1.12Q318.52 0.24 315.44 0.24L315.44 0.24Q313.16 0.24 311.26-0.64Q309.36-1.52 308.04-3.20L308.04-3.20L308.04 7.76L304.20 7.76L304.20-21.20L307.88-21.20L307.88-17.84Q309.16-19.60 311.12-20.50Q313.08-21.40 315.44-21.40L315.44-21.40ZM315.12-3.12Q317.16-3.12 318.78-4.06Q320.40-5 321.34-6.70Q322.28-8.40 322.28-10.60L322.28-10.60Q322.28-12.80 321.34-14.50Q320.40-16.20 318.78-17.12Q317.16-18.04 315.12-18.04L315.12-18.04Q313.12-18.04 311.50-17.10Q309.88-16.16 308.94-14.48Q308-12.80 308-10.60L308-10.60Q308-8.40 308.92-6.70Q309.84-5 311.48-4.06Q313.12-3.12 315.12-3.12L315.12-3.12Z M356.64-10.48Q356.64-10.04 356.56-9.32L356.56-9.32L339.36-9.32Q339.72-6.52 341.82-4.82Q343.92-3.12 347.04-3.12L347.04-3.12Q350.84-3.12 353.16-5.68L353.16-5.68L355.28-3.20Q353.84-1.52 351.70-0.64Q349.56 0.24 346.92 0.24L346.92 0.24Q343.56 0.24 340.96-1.14Q338.36-2.52 336.94-5Q335.52-7.48 335.52-10.60L335.52-10.60Q335.52-13.68 336.90-16.16Q338.28-18.64 340.70-20.02Q343.12-21.40 346.16-21.40L346.16-21.40Q349.20-21.40 351.58-20.02Q353.96-18.64 355.30-16.16Q356.64-13.68 356.64-10.48L356.64-10.48ZM346.16-18.16Q343.40-18.16 341.54-16.48Q339.68-14.80 339.36-12.08L339.36-12.08L352.96-12.08Q352.64-14.76 350.78-16.46Q348.92-18.16 346.16-18.16L346.16-18.16Z M371.64-17.64Q372.64-19.48 374.60-20.44Q376.56-21.40 379.36-21.40L379.36-21.40L379.36-17.68Q379.04-17.72 378.48-17.72L378.48-17.72Q375.36-17.72 373.58-15.86Q371.80-14 371.80-10.56L371.80-10.56L371.80 0L367.96 0L367.96-21.20L371.64-21.20L371.64-17.64Z"/></g>
</svg>
</g><g opacity="1" transform="rotate(0 273.082 978.0618)">
<svg width="224.6671" height="120" x="273.082" y="978.0618" version="1.1" preserveAspectRatio="none" viewBox="-0.2 -28.4 53.92 28.8">
  <g transform="matrix(1 0 0 1 0 0)" class="companyName"><path id="id-D6z1nYkh2" d="M24.72 0L21.92-6.48L7.92-6.48L5.16 0L-0.20 0L12.40-28L17.52-28L30.16 0L24.72 0ZM9.68-10.56L20.20-10.56L14.92-22.80L9.68-10.56Z M42.40 0.40Q39.16 0.40 36.14-0.52Q33.12-1.44 31.36-2.96L31.36-2.96L33.16-7Q34.88-5.64 37.38-4.78Q39.88-3.92 42.40-3.92L42.40-3.92Q45.52-3.92 47.06-4.92Q48.60-5.92 48.60-7.56L48.60-7.56Q48.60-8.76 47.74-9.54Q46.88-10.32 45.56-10.76Q44.24-11.20 41.96-11.76L41.96-11.76Q38.76-12.52 36.78-13.28Q34.80-14.04 33.38-15.66Q31.96-17.28 31.96-20.04L31.96-20.04Q31.96-22.36 33.22-24.26Q34.48-26.16 37.02-27.28Q39.56-28.40 43.24-28.40L43.24-28.40Q45.80-28.40 48.28-27.76Q50.76-27.12 52.56-25.92L52.56-25.92L50.92-21.88Q49.08-22.96 47.08-23.52Q45.08-24.08 43.20-24.08L43.20-24.08Q40.12-24.08 38.62-23.04Q37.12-22 37.12-20.28L37.12-20.28Q37.12-19.08 37.98-18.32Q38.84-17.56 40.16-17.12Q41.48-16.68 43.76-16.12L43.76-16.12Q46.88-15.40 48.88-14.62Q50.88-13.84 52.30-12.24Q53.72-10.64 53.72-7.92L53.72-7.92Q53.72-5.60 52.46-3.72Q51.20-1.84 48.64-0.72Q46.08 0.40 42.40 0.40L42.40 0.40Z"/></g>
</svg>
</g><g opacity="1" transform="rotate(0 329.2488 877.1519)">
<svg width="112.3335" height="70.9099" x="329.2488" y="877.1519" version="1.1" preserveAspectRatio="none" viewBox="20.00119400024414 49.500999450683594 159.9998321533203 100.9990005493164">
  <g transform="matrix(1 0 0 1 0 0)"><g><path d="M107.15 103.099H82.547c-10.502 0-19.015-8.513-19.015-19.015v-.31c0-10.502 8.513-19.015 19.015-19.015h24.603c10.502 0 19.015 8.514 19.015 19.015v.31c0 10.502-8.514 19.015-19.015 19.015z" data-color="1" class="icon1"></path><path d="M132.127 141.368v-.4s-.926-.583-4.015-.583c-3.089 0-3.592.723-3.592.723v8.703s1.011.501 3.782.501 3.769-.506 3.769-.506l.144-1.423s3.425-.333 3.425-3.483-1.952-3.224-3.513-3.532zm.052 5.791v-4.523s2.185-.292 2.284 1.61c.115 2.215-2.284 2.913-2.284 2.913z" data-color="2" class="icon2"></path><path d="M154.409 100.189s-6.345.498-10.691 5.108c-4.346 4.609-7.593 12.952-7.966 14.116-.372 1.165-2.717 6.969 2.008 10.002 0 0 1.989.933 6.382 1.341 0 0 .004 6.452-.232 9.511-.236 3.059-.888 7.656-.888 7.656h29.714s.268-6.984.239-10.195c-.029-3.211-.108-6.705-.108-6.705s3.19-2.616 3.047-6.395c-.143-3.778-.761-9.252-2.235-13.735-1.474-4.483-3.473-7.854-7.076-9.435-2.9-1.273-6.204-1.513-6.204-1.513l-5.99.244z" data-color="2" class="icon2"></path><path d="M88.591 109.647s-6.277.327-9.005 1.776c-2.729 1.449-5.959 2.334-8.629 8.919-2.67 6.585-2.964 7.797-3.412 10.041-.448 2.245-1.199 6.527-.818 9.382.381 2.856 1.357 6.184 4.82 7.576 0 0 1.439.604 3.005.581 1.566-.022 35.68 0 35.68 0s1.84-.568 2.467-1.014c.627-.446 2.312-1.835 2.983-4.271.671-2.436.61-5.318.494-6.559-.116-1.241-.461-4.077-.961-6.046-.5-1.969-1.984-6.82-2.802-8.657-.818-1.837-2.173-4.886-3.654-6.46-1.481-1.574-4.371-3.386-6.199-3.96-1.827-.574-4.728-1.313-7.382-1.309-2.655.005-6.587.001-6.587.001z" data-color="3" class="icon3"></path><path d="M98.147 147.933H85.372c-7.181 0-13.002-5.821-13.002-13.002v-.212c0-7.181 5.821-13.002 13.002-13.002h12.774c7.181 0 13.002 5.821 13.002 13.002v.212c0 7.181-5.821 13.002-13.001 13.002z" data-color="2" class="icon2"></path><path d="M43.196 137.895s-.615-.047-.685.399c-.07.446.425.49 1.416.539.991.049 19.548-.022 19.548-.022s1.253-.575 1.281-1.393c.028-.818.039-4.296.039-4.296s-.308-1.362-1.636-1.528c-1.329-.166-20.169-.031-20.169-.031s-.461.246-.478.537c-.017.291.685.44.685.44v5.355z" data-color="1" class="icon1"></path><path d="m63.994 140.38.543-.186.248-.497-.184-.612-.731-.363-26.694.149s-1.941.707-2.127 2.181c-.185 1.474-.015 6.611-.015 6.611s.396 2.318 2.212 2.491c1.816.173 26.926-.017 26.926-.017s.719-.333.613-.951c-.106-.618-.955-.666-.955-.666l.164-8.14z" data-color="2" class="icon2"></path><path d="M88.265 110.932s.31-1.275.433-2.125c.123-.85.249-2.832.249-2.832s-1.75-1.04-1.916-3.467l-.155-.19s-2.451.949-2.842-1.565c-.391-2.515 2.482-2.168 2.796-1.931l.003-1.358s1.795-.539 3.026-1.63 1.992-2.601 1.992-2.601.872 1.933 2.289 2.827a17.351 17.351 0 0 0 2.761 1.404l.003 1.358s2.589-.879 2.828 1.632c0 0 .115 1.825-1.22 1.945-1.336.12-1.707-.071-1.707-.071s-.378 2.326-1.984 3.649c0 0 .199 3.271.445 4.064 0 0 .484.914.213 1.477-.27.563-1.379 1.923-3.627 1.804-2.247-.12-3.071-1.154-3.26-1.332-.191-.181-.327-1.058-.327-1.058z" data-color="1" class="icon1"></path><path d="M95.25 135.944c0 1.523-1.225 2.758-2.736 2.758-1.511 0-2.736-1.235-2.736-2.758s1.225-2.758 2.736-2.758c1.511 0 2.736 1.235 2.736 2.758z" data-color="1" class="icon1"></path><path d="M43.196 137.895v-5.355h19.713l.608.334.149.521v3.836l-.326.492-.543.17-19.601.002z" data-color="1" class="icon1"></path><path d="m36.527 141.549.174-.612.548-.47.704-.087h25.916v8.265H37.316l-.611-.551-.173-.523-.005-6.022z" data-color="1" class="icon1"></path><path d="M85.972 98.431s-.58-3.092-.205-4.729c.376-1.636 1.426-3.7 5.984-3.809 0 0 2.968.073 4.364 1.147 1.397 1.074 1.988 2.465 1.839 4.307-.149 1.842-.286 3.27-.286 3.27l-.763.203-.003-1.358s-3.657-.95-5.05-4.231c0 0-1.543 3.612-5.018 4.231l-.107 1.307-.755-.338z" data-color="2" class="icon2"></path><path d="M86.283 102.636s.624 3.42-.705 4.48c-1.329 1.06-3.385 2.3-3.415 3.303 0 0 2.236-.394 3.482-.523 1.245-.129 2.946-.249 2.946-.249l.451-3.612s-1.928-1.273-2.036-3.709l-.723.31z" data-color="2" class="icon2"></path><path d="M97.449 102.507s-.418 1.766-.071 3.177c.346 1.411 1.465 2.069 2.204 2.575.739.506 1.692 1.091 1.993 2.282 0 0-2.964-.649-4.681-.771l-1.717-.122-.357-3.673s1.654-1.141 1.984-3.649l.645.181z" data-color="2" class="icon2"></path><path d="M71.362 89.428c0 5.458-4.39 9.883-9.804 9.883-5.415 0-9.804-4.425-9.804-9.883 0-5.458 4.39-9.883 9.804-9.883 5.415 0 9.804 4.425 9.804 9.883z" data-color="2" class="icon2"></path><path d="M60.65 100.36v3.852s.112 2.124 2.748 2.124 3.208-1.497 3.208-1.497l.235-4.479s-1.333.596-3.096.485a16.547 16.547 0 0 1-3.095-.485z" data-color="2" class="icon2"></path><path d="M134.193 85.877h-10.878c-5.812 0-10.568-4.756-10.568-10.568v-.172c0-5.812 4.756-10.568 10.568-10.568h10.878c5.812 0 10.568 4.756 10.568 10.568v.172c0 5.813-4.755 10.568-10.568 10.568z" data-color="3" class="icon3"></path><path d="M131.102 69.267c-.563-.972-1.485-.972-2.048 0l-4.327 7.47c-.563.972-.11 1.767 1.006 1.767h8.693c1.116 0 1.569-.795 1.006-1.767l-4.33-7.47z" data-color="1" class="icon1"></path><path d="M123.832 132.943s1.474 3.747 6.436 1.636c0 0-.825 2.246-4.142 1.893-2.997-.319-2.294-3.529-2.294-3.529z" data-color="1" class="icon1"></path><path d="M125.269 120.606s.898.812 2.166 0c0 0-.278.988-.991 1.069-.712.081-1.175-1.069-1.175-1.069z" data-color="1" class="icon1"></path><path d="M43.196 137.895s-.615-.047-.685.399c-.07.446.425.49 1.416.539.991.049 19.548-.022 19.548-.022s1.253-.575 1.281-1.393c.028-.818.039-4.296.039-4.296s-.308-1.362-1.636-1.528c-1.329-.166-20.169-.031-20.169-.031s-.461.246-.478.537c-.017.291.685.44.685.44v5.355z" opacity=".2"></path><path d="M123.832 132.943s1.474 3.747 6.436 1.636c0 0-.825 2.246-4.142 1.893-2.997-.319-2.294-3.529-2.294-3.529z" opacity=".2"></path><path d="M125.269 120.606s.898.812 2.166 0c0 0-.278.988-.991 1.069-.712.081-1.175-1.069-1.175-1.069z" opacity=".2"></path><path d="m151.261 116.178-4.087-1.917s-2.3-.361-3.22 1.066c0 0-2.725.368-2.645 2.467 0 0 2.044-.197 3.123.38 1.079.577 2.998 1.875 2.998 1.875s2.203-3.092 3.831-3.871z" data-color="1" class="icon1"></path><path d="M158.153 119.166s.831-1.854 2.993-.697c0 0 1.083-1.037 3.135-.003 0 0 1.256-.66 2.247.25.991.91 1.911 2.443 1.911 2.443s.46 1.712-1.344 1.819l-.071.178s.212 1.321-1.433 1.4c-1.645.08-2.268-1.365-2.268-1.365s-.279 1.409-1.429 1.338c-1.15-.071-1.38-.838-1.398-1.284-.018-.446.195-1.195.018-1.659-.178-.462-1.342-2.327-2.361-2.42z" data-color="1" class="icon1"></path><path d="M162.6 117.842s-1.221-1.312-3.22-1.289c-1.999.023-2.76 1.931-2.76 1.931l1.532.79s.491-.982 1.116-1.1c.625-.118 1.74.274 1.74.274s.847-.713 1.724-.535l-.132-.071z" data-color="3" class="icon3"></path><path d="M160.014 94.372s2.558 1.159 3.032-1.364c.474-2.524-2.689-2.146-2.689-2.146l-4.635-2.969c-.994-.637-2.643-2.26-2.643-2.26l-1.299 6.724s-1.135 5.208 2.737 5.35l-.109 2.481s-1.768 5.005.602 5.025c2.37.019 5.208-4.692 5.238-4.978.03-.286.088-5.566.088-5.566l-.322-.297z" data-color="1" class="icon1"></path><path d="M169.388 103.081s.657-1.98-.639-3.136c-1.296-1.157-3.552-1.534-3.851-3.129-.299-1.595.96-4.185 1.899-6.326.939-2.141.886-4.385-.598-5.294-1.484-.91-3.976-1.996-5.005-1.978 0 0-2.17-1.757-4.447-1.5-2.277.256-3.935.452-4.881 2.257-.947 1.805-.838 4.138.251 6.122l.962-4.609s3.703 4.015 7.258 5.257c0 0 1.055-.019 1.621.171s1.31 1.078 1.056 2.24c-.254 1.161-1.585 1.865-2.677 1.513l.051 5.117s2.985.261 4.848 1.046c1.864.786 4.152 2.249 4.152 2.249z" data-color="3" class="icon3"></path><path d="M153.239 97.579s-1.221 1.513-.108 2.8l1.278-.191.189-2.375-1.359-.234z"></path><path d="M153.079 85.489s3.546 3.844 7.03 5.172c-1.015-.827-4.857-4.039-5.591-5.831-.736-1.797 1.391-2.838 1.964-3.081-2.14.244-3.706.493-4.616 2.227-.947 1.805-.838 4.138.251 6.122l.962-4.609z" data-color="1" class="icon1"></path><path d="M153.239 97.579s-1.221 1.513-.108 2.8l.736-.11c-.543-.768-.117-2.284-.025-2.586l-.603-.104z" data-color="1" class="icon1"></path><path d="M96.115 91.04c-.541-.416-1.316-.68-2.065-.85.033.015 2.099.936 2.145 3.224.047 2.307-4.175-.183-4.175-.183l.067.492c1.528 2.884 4.814 3.739 4.814 3.739l.003 1.358.764-.203s.137-1.428.286-3.27c.149-1.842-.442-3.233-1.839-4.307z" data-color="1" class="icon1"></path><path d="M101.574 110.541c-.301-1.191-1.254-1.776-1.993-2.282-.739-.506-1.857-1.164-2.204-2.575-.346-1.411.071-3.177.071-3.177l-.645-.181a5.854 5.854 0 0 1-.743 2.202c-.066.458-.262 2.33.747 3.368.445.458.641 1.198.714 1.934 1.727.202 4.053.711 4.053.711z" data-color="1" class="icon1"></path><path d="M175.935 124.12s-3.004-1.391-5.852 1.07c-2.848 2.461-3.292 5.874-1.593 7.645 0 0 3.659-.539 5.536-3.031 1.878-2.492 1.909-5.684 1.909-5.684z" data-color="1" class="icon1"></path><path d="M126.814 136.806a6.26 6.26 0 0 1-.193-.003c-1.777-.054-2.51-.928-2.813-1.652-.583-1.396-.015-3.233.869-4.204.02-.024.593-.74.025-2.458-.375-1.13-.287-2.252.241-3.078.482-.755 1.295-1.213 2.353-1.325 1.032-.11 1.973.238 2.637.979.684.763 1.003 1.852.812 2.772l-.04.195c-.282 1.363-.367 1.774.037 3.112.273.903.314 2.85-.735 4.232-.72.95-1.793 1.43-3.193 1.43zm.864-12.364c-.11 0-.225.006-.344.018-.94.1-1.658.499-2.078 1.155-.466.728-.538 1.733-.202 2.754.652 1.972-.071 2.797-.102 2.831-.788.864-1.319 2.564-.801 3.804.373.892 1.23 1.384 2.481 1.422 1.368.032 2.402-.388 3.077-1.278.913-1.203.944-3.002.673-3.894-.431-1.43-.326-1.939-.044-3.299l.04-.195c.165-.795-.127-1.777-.724-2.443a2.576 2.576 0 0 0-1.976-.875z"></path><path d="M126.352 121.867c-.735 0-1.311-.843-1.311-1.92s.576-1.92 1.311-1.92 1.312.844 1.312 1.92-.577 1.92-1.312 1.92zm0-3.463c-.507 0-.936.707-.936 1.544 0 .836.429 1.543.936 1.543.509 0 .938-.707.938-1.543 0-.837-.429-1.544-.938-1.544z"></path><path d="M155.677 97.896c-.386 0-.757-.01-1.047-.022-.672-.029-1.186-.137-1.619-.339-.749-.349-1.204-.999-1.393-1.986-.283-1.494-.065-3.012.145-4.481l.03-.207c.138-.958 1.079-5.357 1.113-5.441a.189.189 0 0 1 .243-.105.189.189 0 0 1 .103.245c-.029.126-.942 4.33-1.089 5.356l-.03.207c-.206 1.438-.418 2.926-.147 4.357.164.858.55 1.419 1.182 1.715.388.182.857.278 1.479.305.618.027 1.528.033 2.161-.013.101-.013.192.07.199.174a.187.187 0 0 1-.173.201c-.349.024-.761.034-1.157.034z"></path><path d="M160.466 91.05a.185.185 0 0 1-.088-.022c-6.271-3.374-7.708-5.757-7.766-5.857a.187.187 0 1 1 .322-.191c.013.023 1.464 2.404 7.619 5.716a.188.188 0 0 1-.087.354z"></path><path d="M157.158 89.861c-.145-.043-.252.008-.363.54-.124.593.017.718.151.73.134.012.291-.156.339-.584.048-.429.063-.63-.127-.686z"></path><path d="M153.226 89.227c-.143-.048-.252 0-.381.527-.144.588-.007.718.126.735.133.016.296-.146.359-.572.062-.427.084-.627-.104-.69z"></path><path d="M152.583 88.081c-.06 0-.12-.03-.155-.084a.19.19 0 0 1 .052-.261c.258-.171.69-.364 1.45-.056a.188.188 0 0 1 .103.245.186.186 0 0 1-.243.104c-.584-.237-.888-.124-1.103.021a.193.193 0 0 1-.104.031z"></path><path d="M161.124 94.858a2.12 2.12 0 0 1-1.216-.383.19.19 0 0 1-.046-.262.184.184 0 0 1 .259-.047c.261.183.568.291.888.312.039.002.077.004.115.004.919 0 1.695-.722 1.755-1.659a1.764 1.764 0 0 0-.434-1.285 1.748 1.748 0 0 0-2.21-.362.187.187 0 0 1-.255-.068.19.19 0 0 1 .068-.258c.366-.216.79-.318 1.212-.288a2.146 2.146 0 0 1 1.99 2.285 2.141 2.141 0 0 1-2.126 2.011z"></path><path d="M161.422 93.938a.189.189 0 0 1-.132-.055l-1.173-1.182a.189.189 0 0 1 .041-.298l1.575-.887a.187.187 0 0 1 .255.072.19.19 0 0 1-.072.256l-1.36.766.998 1.006a.187.187 0 0 1 0 .266.18.18 0 0 1-.132.056z"></path><path d="M155.124 105.403c-.196 0-.397-.018-.602-.058a1.045 1.045 0 0 1-.734-.537c-.712-1.256.322-4.328.436-4.657l.184-2.462a.19.19 0 0 1 .2-.173c.103.008.18.098.172.202l-.185 2.487c-.021.081-1.135 3.267-.484 4.417a.68.68 0 0 0 .481.354c3.218.627 5.484-4.813 5.507-4.868a.185.185 0 0 1 .244-.103.19.19 0 0 1 .102.246c-.091.221-2.133 5.152-5.321 5.152z"></path><path d="M155.192 94.857c-.231 0-.48-.056-.747-.167a.189.189 0 0 1 .144-.348c.403.17.747.182 1.018.041.461-.239.606-.847.607-.853a.19.19 0 0 1 .224-.142.189.189 0 0 1 .141.225c-.007.032-.183.782-.798 1.102a1.247 1.247 0 0 1-.589.142z"></path><path d="M160.273 100.366a.187.187 0 0 1-.187-.192l.128-5.456a.19.19 0 0 1 .187-.184c.108.002.19.088.187.192l-.128 5.456a.19.19 0 0 1-.187.184z"></path><path d="M153.27 93.196a.186.186 0 0 1-.181-.145c-.103-.442-.301-1.498.068-1.785.225-.174.698-.014 1.062.155l.424-2.346a.194.194 0 0 1 .217-.152.187.187 0 0 1 .15.219l-.468 2.592a.192.192 0 0 1-.102.136.19.19 0 0 1-.168-.002c-.371-.195-.802-.336-.895-.298-.104.082-.071.764.075 1.397a.186.186 0 0 1-.139.226l-.043.003z"></path><path d="M88.693 102.895c-1.274 0-2.311-1.316-2.311-2.934s1.037-2.933 2.311-2.933c1.275 0 2.312 1.315 2.312 2.933 0 .305-.026.544-.088.799a.187.187 0 1 1-.362-.088c.055-.228.076-.434.076-.711 0-1.409-.869-2.556-1.938-2.556-1.068 0-1.937 1.147-1.937 2.556 0 1.41.869 2.557 1.937 2.557.535 0 .986-.24 1.341-.713a.186.186 0 0 1 .262-.036.19.19 0 0 1 .037.263c-.425.565-.991.863-1.64.863z"></path><path d="M95.007 102.895c-1.274 0-2.311-1.316-2.311-2.934s1.037-2.933 2.311-2.933c1.275 0 2.312 1.315 2.312 2.933s-1.037 2.934-2.312 2.934zm0-5.49c-1.068 0-1.937 1.147-1.937 2.556 0 1.41.869 2.557 1.937 2.557 1.069 0 1.938-1.147 1.938-2.557 0-1.409-.869-2.556-1.938-2.556z"></path><path d="M92.806 100.148a.186.186 0 0 1-.128-.051c-.332-.315-.659-.473-.969-.44-.414.03-.68.358-.683.361a.186.186 0 0 1-.263.031.189.189 0 0 1-.031-.264c.015-.019.367-.461.949-.504.426-.028.843.151 1.253.542a.19.19 0 0 1 .008.266.185.185 0 0 1-.136.059z"></path><path d="M108.588 148.121H74.931c-1.515 0-2.749-1.243-2.749-2.77v-21.052c0-1.527 1.234-2.77 2.749-2.77h33.656c1.515 0 2.747 1.243 2.747 2.77v21.052c.001 1.527-1.232 2.77-2.746 2.77zm-33.657-26.215a2.386 2.386 0 0 0-2.374 2.393v21.052a2.386 2.386 0 0 0 2.374 2.394h33.656c1.308 0 2.373-1.074 2.373-2.394v-21.052a2.385 2.385 0 0 0-2.373-2.393H74.931z"></path><path d="M91.807 137.943c-1.612 0-2.924-1.321-2.924-2.947 0-1.625 1.312-2.947 2.924-2.947 1.612 0 2.923 1.322 2.923 2.947 0 1.626-1.311 2.947-2.923 2.947zm0-5.516c-1.406 0-2.549 1.153-2.549 2.57s1.144 2.57 2.549 2.57c1.406 0 2.548-1.153 2.548-2.57s-1.142-2.57-2.548-2.57z"></path><path d="M108.697 148.111a.188.188 0 0 1 0-.376c3.277 0 5.491-1.505 6.583-4.473 3.08-8.375-3.543-25.545-6.944-28.493-4.382-3.798-7.872-4.642-13.17-4.934a.187.187 0 0 1-.175-.198c.005-.104.096-.174.197-.178 5.381.298 8.93 1.157 13.393 5.025 3.451 2.992 10.175 20.414 7.051 28.909-1.154 3.131-3.486 4.718-6.935 4.718z"></path><path d="M75.04 148.121c-3.922 0-6.543-1.718-7.788-5.105-3.13-8.511 3.61-25.46 7.153-28.532 4.345-3.766 8.645-4.714 14.176-5.025.102.007.192.074.197.178a.187.187 0 0 1-.175.199c-5.453.306-9.688 1.238-13.953 4.934-3.491 3.026-10.133 19.728-7.047 28.115 1.186 3.225 3.69 4.86 7.439 4.86a.188.188 0 1 1-.002.376z"></path><path d="M165.039 118.292a.187.187 0 0 1-.184-.156c-.501-2.946-.092-7.218-.089-7.261a.189.189 0 0 1 .204-.169c.103.01.178.103.168.206-.005.042-.408 4.265.084 7.161a.187.187 0 0 1-.152.217c-.01.002-.021.002-.031.002z"></path><path d="M165.24 124.791c-.76 0-1.267-.401-1.56-.74-.373-.431-.575-.965-.55-1.144.013-.088.096-.155.183-.138a.162.162 0 0 1 .138.185c.002.115.473 1.511 1.79 1.511.709-.005 1.172-.18 1.387-.522.439-.695-.146-1.968-.495-2.729-.064-.14-.121-.262-.161-.361-.32-.78-.681-1.663-1.875-2.261-1.576-.789-2.995-.082-3.008-.075a.163.163 0 0 1-.147-.291c.065-.033 1.581-.786 3.3.074 1.301.651 1.704 1.636 2.029 2.427.039.096.094.214.156.35.377.821 1.008 2.195.475 3.04-.279.442-.832.668-1.646.673l-.016.001z"></path><path d="M166.973 123.204a.163.163 0 0 1-.033-.323c.84-.177 1.325-.498 1.444-.953.214-.833-.805-2.089-1.744-2.912-1.011-.89-2.404-.422-2.42-.417a.163.163 0 0 1-.105-.308c.065-.022 1.582-.537 2.739.479.512.449 2.161 2.012 1.843 3.241-.152.585-.721.985-1.69 1.19a.214.214 0 0 1-.034.003z"></path><path d="M156.58 118.759a.189.189 0 0 1-.165-.277c.773-1.481 1.874-2.202 3.365-2.202 1.016.003 2.048.541 3.085 1.597a.19.19 0 0 1-.001.266.186.186 0 0 1-.264-.001c-.964-.983-1.908-1.483-2.807-1.486-1.371 0-2.335.636-3.048 2.001a.185.185 0 0 1-.165.102z"></path><path d="M163.76 133.507c-2.675 0-5.74-.661-9.344-2.013a38.966 38.966 0 0 1-9.072-4.877.192.192 0 0 1-.077-.171c.002-.029.288-2.939 1.423-5.406 1.522-3.306 4.329-4.956 4.448-5.025a.184.184 0 0 1 .168-.009l7.577 3.389a.19.19 0 0 1 .095.249.188.188 0 0 1-.246.096l-7.488-3.349c-.467.295-2.884 1.918-4.215 4.809-.987 2.144-1.317 4.634-1.378 5.176a38.548 38.548 0 0 0 8.895 4.766c3.826 1.436 7.04 2.086 9.794 1.978 1.672-.063 3.85-.231 5.858-.982 1.245-.466 2.983-1.377 4.196-3.072 1.266-1.769 1.387-3.977 1.351-5.703-.072-3.532-.833-7.001-1.489-9.628a71.433 71.433 0 0 0-.894-3.261c-1.963-6.559-6.206-9.941-12.971-10.339a.188.188 0 0 1-.175-.199.186.186 0 0 1 .197-.178c6.941.41 11.293 3.879 13.308 10.607.33 1.102.632 2.205.898 3.278.659 2.647 1.426 6.143 1.501 9.712.036 1.785-.092 4.072-1.422 5.931-1.268 1.773-3.076 2.721-4.369 3.205-2.058.77-4.273.942-5.974 1.006-.197.007-.395.01-.595.01z"></path><path d="M145.768 130.952c-3.372 0-7.142-.379-8.818-1.884-4.317-3.877-1.552-9.738.467-14.017.129-.275.264-.567.405-.874 2.196-4.765 5.874-12.741 16.563-14.174.098-.018.197.058.21.161a.187.187 0 0 1-.16.211c-10.486 1.406-14.109 9.264-16.273 13.959-.142.308-.277.601-.408.876-1.967 4.172-4.663 9.886-.555 13.575 3.179 2.855 14.823 1.42 14.938 1.403.121-.007.196.062.209.164a.187.187 0 0 1-.161.21c-.241.032-3.141.39-6.417.39z"></path><path d="M143.023 148.111c-.139-.025-.204-.125-.183-.227 1.259-6.065 1.118-17.015 1.115-17.125a.188.188 0 0 1 .185-.191.19.19 0 0 1 .19.185c.001.111.142 11.103-1.125 17.209a.186.186 0 0 1-.182.149z"></path><path d="M172.737 148.111a.19.19 0 0 1-.186-.2c.442-7.476.134-16.79.132-16.883a.188.188 0 0 1 .18-.195c.107 0 .19.08.192.182.004.094.312 9.424-.132 16.919a.187.187 0 0 1-.186.177z"></path><path d="M152.343 116.824a.185.185 0 0 1-.186-.182.187.187 0 0 1 .18-.194c3.453-.116 7.414-.165 7.453-.166a.19.19 0 0 1 .19.186.19.19 0 0 1-.185.191c-.039.001-3.997.05-7.446.166l-.006-.001z"></path><path d="M136.793 123.932c-.139-.025-.204-.125-.182-.226 1.064-5.166 4.543-5.936 4.691-5.966 3.454-.779 6.151 2.061 6.264 2.182a.19.19 0 0 1-.008.266.184.184 0 0 1-.264-.008c-.026-.028-2.674-2.804-5.913-2.072-.038.008-3.392.764-4.404 5.675a.19.19 0 0 1-.184.149z"></path><path d="M141.337 118.112a.186.186 0 0 1-.174-.122c-.02-.055-.471-1.357 1.548-2.38 1.959-.991 4.367.405 4.468.465a.189.189 0 0 1-.19.325c-.022-.013-2.336-1.354-4.11-.453-1.706.863-1.38 1.871-1.365 1.914a.19.19 0 0 1-.177.251z"></path><path d="M151.23 116.367a.19.19 0 0 1-.114-.039c-.013-.01-1.357-1.034-3.744-1.764-2.286-.703-3.488 1.012-3.5 1.029a.186.186 0 0 1-.26.049.19.19 0 0 1-.049-.262 3.513 3.513 0 0 1 3.917-1.178c2.456.752 3.806 1.782 3.863 1.826a.188.188 0 0 1 .034.263.179.179 0 0 1-.147.076z"></path><path d="M85.981 102.726a2.111 2.111 0 0 1-1.601-.729 2.149 2.149 0 0 1-.529-1.557 2.14 2.14 0 0 1 .717-1.477c.428-.381.98-.575 1.544-.533.226.014.447.063.657.148a.188.188 0 0 1 .104.245.184.184 0 0 1-.242.105 1.764 1.764 0 0 0-.543-.122 1.739 1.739 0 0 0-1.273.439 1.773 1.773 0 0 0-.593 1.219 1.772 1.772 0 0 0 1.646 1.881c.318.014.638-.047.92-.196a.187.187 0 0 1 .252.081.19.19 0 0 1-.079.254 2.102 2.102 0 0 1-.98.242z"></path><path d="M85.551 101.759a.189.189 0 0 1-.114-.337l1.063-.827a.185.185 0 0 1 .262.034.19.19 0 0 1-.034.264l-1.063.827a.185.185 0 0 1-.114.039z"></path><path d="M86.52 100.479a.183.183 0 0 1-.111-.037l-1.105-.824a.19.19 0 0 1-.039-.263.185.185 0 0 1 .262-.039l1.105.824c.083.062.1.18.039.263a.193.193 0 0 1-.151.076z"></path><path d="M97.789 102.726c-.341 0-.678-.082-.981-.241a.19.19 0 0 1-.079-.254.186.186 0 0 1 .252-.081c.283.149.609.209.92.196a1.766 1.766 0 0 0 1.645-1.881 1.769 1.769 0 0 0-.591-1.219 1.715 1.715 0 0 0-1.274-.44c-.2.013-.395.059-.577.137a.187.187 0 0 1-.245-.1.19.19 0 0 1 .098-.247c.222-.095.458-.151.701-.166a2.098 2.098 0 0 1 1.546.533c.427.379.681.905.716 1.477a2.142 2.142 0 0 1-.529 1.556 2.107 2.107 0 0 1-1.602.73z"></path><path d="M98.218 101.759a.185.185 0 0 1-.114-.039l-1.086-.845a.189.189 0 0 1-.034-.264.185.185 0 0 1 .262-.033l1.086.845a.189.189 0 0 1 .034.264.188.188 0 0 1-.148.072z"></path><path d="M97.174 100.535a.184.184 0 0 1-.15-.076.19.19 0 0 1 .039-.263l1.182-.881a.186.186 0 0 1 .262.039.19.19 0 0 1-.039.263l-1.182.881a.19.19 0 0 1-.112.037z"></path><path d="M91.883 106.945c-.936 0-2.277-.18-3.346-1.036-.824-.66-1.369-1.72-1.668-3.24a9.963 9.963 0 0 1-.119-1.085.187.187 0 0 1 .173-.201.184.184 0 0 1 .199.174c.033.474.071.823.114 1.038.28 1.429.781 2.416 1.533 3.018.985.79 2.237.955 3.114.955.103 0 .187.084.187.188a.188.188 0 0 1-.187.189z"></path><path d="M86.867 98.791a.188.188 0 0 1-.186-.175 14.597 14.597 0 0 1-.034-1.157.188.188 0 0 1 .187-.185.189.189 0 0 1 .187.192c-.01.523.032 1.117.032 1.123a.188.188 0 0 1-.173.201l-.013.001z"></path><path d="M86.834 97.651a.186.186 0 0 1-.18-.138.19.19 0 0 1 .13-.232c3.538-.983 4.883-4.092 4.896-4.123.04-.096.15-.14.244-.1a.19.19 0 0 1 .1.247c-.056.134-1.423 3.306-5.14 4.339a.223.223 0 0 1-.05.007z"></path><path d="M91.852 106.945a.188.188 0 0 1 0-.376c.877 0 2.129-.165 3.114-.955.751-.602 1.253-1.589 1.532-3.018.05-.249.089-.627.125-1.189.006-.103.094-.199.198-.176a.187.187 0 0 1 .174.2c-.036.579-.077.973-.129 1.238-.299 1.521-.844 2.58-1.668 3.24-1.069.857-2.41 1.036-3.346 1.036z"></path><path d="M96.901 98.802a.189.189 0 0 1-.187-.19c.005-.471.005-.876 0-1.145a.19.19 0 0 1 .184-.192.19.19 0 0 1 .191.185c.005.272.005.682 0 1.156a.19.19 0 0 1-.188.186z"></path><path d="M96.901 97.651c-3.767-1.04-5.163-4.21-5.221-4.345a.19.19 0 0 1 .097-.247.186.186 0 0 1 .246.098c.013.031 1.388 3.141 4.927 4.124.1.028.158.131.13.232a.185.185 0 0 1-.179.138z"></path><path d="M91.924 113.508c-1.505 0-2.892-.63-3.533-1.605-.327-.498-.402-1.022-.211-1.475.476-1.131.58-4.426.581-4.459a.19.19 0 0 1 .192-.183c.103.003.184.09.18.194-.004.139-.105 3.4-.609 4.595-.14.333-.077.731.179 1.12.469.715 1.647 1.436 3.222 1.436 1.508 0 2.663-.443 3.171-1.217.276-.419.33-.908.148-1.34-.504-1.195-.606-4.457-.609-4.595a.186.186 0 0 1 .18-.194c.1-.002.19.078.192.183.001.033.104 3.328.581 4.459.231.55.166 1.167-.18 1.694-.342.519-1.246 1.387-3.484 1.387z"></path><path d="M97.63 98.62c-.13-.018-.2-.115-.185-.217.43-2.771.431-4.183.008-5.397-.747-2.14-3.384-2.913-5.604-2.924a.188.188 0 0 1 .001-.377c2.348.011 5.144.851 5.956 3.175.446 1.28.448 2.74.008 5.581a.186.186 0 0 1-.184.159z"></path><path d="M85.972 98.62a.188.188 0 0 1-.185-.159c-.44-2.841-.437-4.301.008-5.581.811-2.323 3.608-3.163 5.955-3.175a.188.188 0 0 1 .002.377c-2.221.011-4.858.784-5.604 2.923-.423 1.214-.422 2.626.008 5.397a.189.189 0 0 1-.184.218z"></path><path d="M89.122 97.405a.185.185 0 0 1-.174-.12.19.19 0 0 1 .107-.244 2.506 2.506 0 0 1 1.406-.126.189.189 0 0 1 .142.225.194.194 0 0 1-.223.143c-.357-.082-.814-.038-1.19.109a.182.182 0 0 1-.068.013z"></path><path d="M94.904 97.405a.18.18 0 0 1-.075-.016 1.954 1.954 0 0 0-1.214-.106.192.192 0 0 1-.223-.143.188.188 0 0 1 .142-.225 2.33 2.33 0 0 1 1.444.13.188.188 0 0 1-.074.36z"></path><path d="M92.144 104.33c-.436 0-.791-.114-.815-.122a.189.189 0 0 1-.12-.237.19.19 0 0 1 .236-.121c.007.002.915.29 1.498-.11.307-.211.479-.586.512-1.116a.186.186 0 0 1 .186-.176.188.188 0 0 1 .186.2c-.04.652-.268 1.125-.676 1.405-.314.214-.684.277-1.007.277z"></path><path d="M90.568 102.514a.184.184 0 0 1-.124-.048c-.065-.059-.641-.595-.659-1.15a.734.734 0 0 1 .213-.544.801.801 0 0 1 .589-.26c.243.001.469.108.635.217.115-1.036.194-2.49-.014-2.809a.19.19 0 0 1 .053-.26.188.188 0 0 1 .26.054c.375.574.092 2.93.032 3.397a.186.186 0 0 1-.318.108c-.09-.091-.38-.329-.648-.329a.441.441 0 0 0-.324.147.345.345 0 0 0-.105.268c.011.336.39.75.534.881a.19.19 0 0 1 .014.266.183.183 0 0 1-.138.062z"></path><path d="M132.13 147.359a.188.188 0 0 1-.041-.372c.084-.02 2.062-.492 2.183-2.473.032-.525-.101-.935-.393-1.217-.603-.583-1.708-.472-1.715-.471-.109.002-.196-.063-.206-.167a.188.188 0 0 1 .166-.207c.053-.006 1.284-.129 2.013.572.377.363.548.872.508 1.513-.139 2.267-2.45 2.813-2.474 2.818a.196.196 0 0 1-.041.004z"></path><path d="M132.214 148.572a.187.187 0 0 1-.186-.17.19.19 0 0 1 .167-.206c.142-.014 3.476-.389 3.246-3.634-.071-1.01-.409-1.774-1.004-2.271-.94-.785-2.223-.645-2.238-.645a.189.189 0 0 1-.206-.165.187.187 0 0 1 .162-.209c.062-.006 1.451-.162 2.516.727.679.565 1.063 1.418 1.141 2.536.257 3.612-3.543 4.032-3.582 4.036l-.016.001z"></path><path d="M128.302 150.5c-.663 0-3.97-.038-3.97-.794 0-.104.084-.188.187-.188.092 0 .17.068.185.158.177.186 1.531.448 3.597.448 2.123 0 3.505-.271 3.649-.459 0-.104.078-.168.181-.168s.181.105.181.209c.002.756-3.34.794-4.01.794z"></path><path d="M124.52 149.894a.188.188 0 0 1-.187-.188v-8.598c0-.104.084-.188.187-.188s.187.084.187.188v8.598a.188.188 0 0 1-.187.188z"></path><path d="M132.13 149.894a.188.188 0 0 1-.187-.188v-8.662c0-.104.084-.188.187-.188s.187.084.187.188v8.662a.188.188 0 0 1-.187.188z"></path><path d="M128.326 142.02c-.164 0-3.993-.01-3.993-.912s3.83-.912 3.993-.912c.163 0 3.992.01 3.992.912s-3.829.912-3.992.912zm-3.613-.912c.154.2 1.438.536 3.613.536 2.231 0 3.524-.354 3.621-.551-.097-.167-1.39-.52-3.621-.52-2.175-.001-3.459.334-3.613.535z"></path><path d="M179.813 148.144h-46.156a.188.188 0 0 1 0-.376h46.156a.188.188 0 0 1 0 .376z"></path><path d="M124.52 148.144H63.94a.188.188 0 0 1 0-.376h60.58a.188.188 0 0 1 0 .376z"></path><path d="M34.963 148.144H23.565a.188.188 0 0 1 0-.376h11.397c.103 0 .187.084.187.188a.186.186 0 0 1-.186.188z"></path><path d="M54.339 56.07a.816.816 0 0 0 .813-.82.816.816 0 0 0-.813-.82.816.816 0 0 0-.813.82.815.815 0 0 0 .813.82z" data-color="3" class="icon3"></path><path d="M60.66 56.113a.86.86 0 0 0 .856-.862.859.859 0 0 0-.856-.862.859.859 0 0 0-.855.862c0 .476.383.862.855.862z" data-color="3" class="icon3"></path><path d="M66.982 56.049a.795.795 0 0 0 .792-.799.796.796 0 0 0-.792-.799.795.795 0 0 0-.792.799.794.794 0 0 0 .792.799z" data-color="3" class="icon3"></path><path d="M54.339 62.486a.86.86 0 0 0 .856-.862.859.859 0 0 0-.856-.862.859.859 0 0 0-.855.862.857.857 0 0 0 .855.862z" data-color="3" class="icon3"></path><path d="M61.558 61.624c0 .5-.402.905-.898.905a.902.902 0 0 1-.898-.905c0-.5.402-.905.898-.905s.898.405.898.905z" data-color="3" class="icon3"></path><path d="M66.982 62.465a.838.838 0 0 0 .834-.841.838.838 0 0 0-.834-.841.838.838 0 0 0-.834.841.837.837 0 0 0 .834.841z" data-color="3" class="icon3"></path><path d="M54.339 68.796a.795.795 0 0 0 .792-.799.796.796 0 0 0-.792-.799.795.795 0 0 0-.792.799.795.795 0 0 0 .792.799z" data-color="3" class="icon3"></path><path d="M60.66 68.838a.838.838 0 0 0 .834-.841c0-.465-.374-.841-.834-.841s-.834.377-.834.841c0 .464.373.841.834.841z" data-color="3" class="icon3"></path><path d="M66.982 68.781c.43 0 .778-.351.778-.785a.782.782 0 0 0-.778-.785.781.781 0 0 0-.778.785c0 .434.348.785.778.785z" data-color="3" class="icon3"></path><path d="M137.983 83.381h-20.415c-3.255 0-5.903-2.669-5.903-5.95v-9.784c0-3.281 2.648-5.95 5.903-5.95h20.584c3.255 0 5.902 2.669 5.902 5.95v9.784c0 2.356-1.338 4.409-3.49 5.358a.188.188 0 0 1-.149-.345c2.015-.888 3.265-2.809 3.265-5.013v-9.784c0-3.073-2.479-5.574-5.528-5.574h-20.584c-3.048 0-5.528 2.5-5.528 5.574v9.784c0 3.073 2.48 5.574 5.528 5.574h20.415a.188.188 0 0 1 0 .376z"></path><path d="M132.231 77.71h-8.693c-.609 0-1.069-.218-1.294-.614-.226-.395-.18-.906.127-1.437l4.326-7.47c.307-.531.728-.822 1.185-.822.458 0 .878.292 1.185.822l4.331 7.471c.307.531.353 1.041.128 1.436-.226.396-.686.614-1.295.614zm-4.349-9.966c-.319 0-.626.226-.863.636l-4.326 7.47c-.237.409-.282.786-.126 1.059.155.274.5.425.971.425h8.693c.471 0 .815-.151.971-.424.156-.274.111-.65-.126-1.059l-4.331-7.471c-.237-.41-.544-.636-.863-.636z"></path><path d="M64.063 106.524h-1.19c-1.476 0-2.678-1.21-2.678-2.697v-3.282c0-.067.004-.133.008-.198a.191.191 0 0 1 .082-.142.198.198 0 0 1 .162-.023 9.883 9.883 0 0 0 6.041.007.194.194 0 0 1 .161.023.19.19 0 0 1 .082.141c.005.064.008.127.008.191v3.282c.001 1.488-1.201 2.698-2.676 2.698zm-3.493-5.909v3.211c0 1.28 1.032 2.32 2.303 2.32h1.19a2.314 2.314 0 0 0 2.303-2.32v-3.205a10.234 10.234 0 0 1-5.796-.006z"></path><path d="M63.478 101.038c-1.077 0-2.136-.167-3.147-.497-4.253-1.378-7.112-5.333-7.112-9.843 0-5.701 4.602-10.339 10.258-10.339 5.656 0 10.257 4.638 10.257 10.339 0 4.518-2.867 8.477-7.133 9.85-1.003.325-2.055.49-3.123.49zm0-20.303c-5.45 0-9.884 4.47-9.884 9.963 0 4.345 2.753 8.157 6.852 9.485a9.886 9.886 0 0 0 6.042.007c4.11-1.323 6.872-5.138 6.872-9.492.001-5.493-4.432-9.963-9.882-9.963z"></path><path d="M67.168 103.7h-7.38a.188.188 0 0 1 0-.376h7.38a.188.188 0 0 1 0 .376z"></path><path d="M67.168 105.569h-7.38a.188.188 0 0 1 0-.376h7.38a.188.188 0 0 1 0 .376z"></path><path d="M67.168 101.831h-7.38a.188.188 0 0 1 0-.376h7.38a.188.188 0 0 1 0 .376z"></path><path d="M67.168 103.7h-7.38a.188.188 0 0 1 0-.376h7.38a.188.188 0 0 1 0 .376z"></path><path d="M57.418 95.093c-.11 0-.216-.003-.315-.007a.188.188 0 0 1-.178-.197.187.187 0 0 1 .186-.18c.606.026 1.463.002 2.023-.492.129-.114.241-.24.337-.375a3.102 3.102 0 0 1-.664-.639 3.029 3.029 0 0 1-.583-2.231c.036-.272.281-1.35.831-1.653a.617.617 0 0 1 .577-.015c.372.176.514.692.609 1.034l.023.081c.118.417.177.854.174 1.298-.004.408-.063 1.254-.456 2.004.787.439 1.872.637 3.329.596.821-.021 1.506-.14 2.096-.363.725-.275 1.303-.728 1.677-1.29a3.918 3.918 0 0 1-.129-.07c-.6-.338-.999-.879-1.068-1.447a1.86 1.86 0 0 1 .184-1.025c.121-.259.343-.592.714-.708.309-.096.522-.002.647.093.493.369.513 1.373.513 1.57a3.246 3.246 0 0 1-.328 1.415c.984.387 2.174.424 3.321.425a.188.188 0 0 1 0 .376c-1.203-.001-2.453-.041-3.507-.47-.416.649-1.068 1.172-1.893 1.483-.628.238-1.354.364-2.216.387-1.519.034-2.686-.174-3.533-.651a2.576 2.576 0 0 1-.407.458c-.565.498-1.339.593-1.964.593zm1.937-5.477a.257.257 0 0 0-.121.033c-.33.182-.588.978-.64 1.372a2.652 2.652 0 0 0 .51 1.952c.158.206.345.388.563.546.342-.67.395-1.436.397-1.805a4.314 4.314 0 0 0-.159-1.193l-.023-.083c-.076-.275-.192-.691-.409-.794a.278.278 0 0 0-.118-.028zm7.678.134a.477.477 0 0 0-.137.023c-.242.075-.398.318-.487.508a1.496 1.496 0 0 0-.152.818c.056.45.384.885.881 1.165.045.025.09.05.135.073.193-.388.296-.815.297-1.263.002-.479-.109-1.078-.362-1.267a.286.286 0 0 0-.175-.057z"></path><path d="M47.061 104.094a.187.187 0 0 1-.145-.069.19.19 0 0 1 .027-.265l7.461-6.123a.184.184 0 0 1 .262.027.19.19 0 0 1-.027.265l-7.461 6.123a.177.177 0 0 1-.117.042z"></path><path d="M53.407 83.894a.19.19 0 0 1-.115-.039l-4.022-3.159a.19.19 0 0 1-.032-.265.187.187 0 0 1 .262-.033l4.022 3.159a.19.19 0 0 1 .032.265.185.185 0 0 1-.147.072z"></path><path d="M63.468 78.688a.188.188 0 0 1-.187-.188v-9.266c0-2.595 2.094-4.707 4.669-4.707h42.8a.188.188 0 0 1 0 .376h-42.8c-2.368 0-4.294 1.942-4.294 4.33V78.5a.19.19 0 0 1-.188.188z"></path><path d="M83.997 103.243H67.949a.188.188 0 0 1 0-.376h16.048c.103 0 .187.084.187.188a.187.187 0 0 1-.187.188z"></path><path d="M121.541 103.243H99.735a.188.188 0 0 1 0-.376h21.806c2.368 0 4.294-1.942 4.294-4.33V89.27c0-.104.084-.188.187-.188s.187.084.187.188v9.267c.001 2.595-2.093 4.706-4.668 4.706z"></path><path d="M63.87 148.834a.188.188 0 0 1-.187-.188v-8.266c0-.104.084-.188.187-.188s.187.084.187.188v8.266a.188.188 0 0 1-.187.188z"></path><path d="M56.517 143.263h-19.99a.188.188 0 0 1 0-.376h19.99a.188.188 0 0 1 0 .376z"></path><path d="M56.517 146.134h-19.99a.188.188 0 0 1 0-.376h19.99c.103 0 .187.084.187.188a.187.187 0 0 1-.187.188z"></path><path d="M63.988 150.342a.541.541 0 0 1-.076-.004l-.433.001H37.687c-1.566 0-2.841-1.285-2.841-2.863v-5.927c0-1.578 1.275-2.863 2.841-2.863l26.244-.002c.011.001.493-.026.799.263.16.152.242.355.242.605 0 .334-.101.594-.298.774-.31.283-.742.244-.762.24l-26.225.003a.978.978 0 0 0-.973.982v5.927c0 .541.436.981.973.981h26.244c.011.003.493-.026.799.263.16.152.242.355.242.604 0 .334-.101.594-.298.774-.237.214-.545.242-.686.242zm-.021-11.283-26.279.003c-1.361 0-2.466 1.115-2.466 2.487v5.927c0 1.371 1.106 2.487 2.466 2.487h26.244c.021.001.311.024.494-.146.115-.105.172-.271.172-.492 0-.143-.04-.252-.123-.33-.187-.179-.525-.163-.532-.161H37.687a1.354 1.354 0 0 1-1.348-1.357v-5.927c0-.749.605-1.358 1.348-1.358l26.244-.002c.021 0 .311.023.494-.146.115-.105.172-.271.172-.492 0-.143-.04-.252-.123-.33-.158-.151-.427-.163-.507-.163z"></path><path d="M43.196 138.081a.188.188 0 0 1-.187-.188v-5.354c0-.104.084-.188.187-.188s.187.084.187.188v5.354a.187.187 0 0 1-.187.188z"></path><path d="M61.488 135.405H46.522a.188.188 0 0 1 0-.376h14.966c.103 0 .187.084.187.188a.187.187 0 0 1-.187.188z"></path><path d="M62.797 137.893c.479 0 .868-.34.868-.757v-3.839c0-.417-.39-.757-.868-.757H43.15s-.639.033-.639-.44c0-.592.639-.535.639-.535h19.648c1.093 0 1.987.78 1.987 1.733v3.839c0 .953-.894 1.733-1.987 1.733H43.15s-.639.033-.639-.44c0-.592.639-.535.639-.535l19.647-.002z" data-color="3" class="icon3"></path><path d="M31.895 142.255a.188.188 0 0 1-.096-.026 17.923 17.923 0 0 1-1.786-1.245.189.189 0 0 1-.032-.264.187.187 0 0 1 .262-.034c.613.481 1.202.891 1.748 1.219a.19.19 0 0 1-.096.35zm-3.412-2.629a.185.185 0 0 1-.126-.049 35.532 35.532 0 0 1-1.553-1.517.189.189 0 0 1 .004-.266.186.186 0 0 1 .264.004 34.79 34.79 0 0 0 1.536 1.501.19.19 0 0 1 .013.266.19.19 0 0 1-.138.061zm-2.997-3.109a.186.186 0 0 1-.141-.065 35.053 35.053 0 0 1-1.361-1.694.189.189 0 0 1 .037-.263.187.187 0 0 1 .262.036c.417.557.87 1.121 1.344 1.675a.19.19 0 0 1-.019.266.186.186 0 0 1-.122.045zm-2.588-3.459a.182.182 0 0 1-.156-.086 19.915 19.915 0 0 1-1.081-1.898.186.186 0 1 1 .334-.167c.29.587.647 1.213 1.06 1.861a.189.189 0 0 1-.056.261.196.196 0 0 1-.101.029zm-1.867-3.89a.187.187 0 0 1-.179-.133 20.04 20.04 0 0 1-.517-2.124.19.19 0 0 1 .149-.22.184.184 0 0 1 .218.151c.129.701.3 1.402.507 2.083a.19.19 0 0 1-.178.243zm-.79-4.25a.187.187 0 0 1-.186-.174 19.16 19.16 0 0 1-.039-2.188c.004-.104.101-.178.193-.181a.186.186 0 0 1 .179.195 19.495 19.495 0 0 0 .039 2.144.187.187 0 0 1-.172.202c-.005.002-.01.002-.014.002zm.176-4.32c-.132-.019-.201-.116-.184-.219.119-.731.283-1.449.491-2.134a.186.186 0 0 1 .233-.125.19.19 0 0 1 .125.235c-.203.669-.365 1.37-.481 2.085a.187.187 0 0 1-.184.158zm1.261-4.127a.195.195 0 0 1-.081-.018.19.19 0 0 1-.088-.251c.316-.667.683-1.306 1.092-1.898a.186.186 0 0 1 .26-.047.19.19 0 0 1 .046.262 13.315 13.315 0 0 0-1.061 1.846.186.186 0 0 1-.168.106zm14.886-.8a2.92 2.92 0 0 1-.87-.133 3.753 3.753 0 0 1-.805-.364.19.19 0 0 1-.064-.258.187.187 0 0 1 .256-.066c.234.141.478.252.724.329.391.121.81.148 1.204.077.11-.023.2.05.217.152.018.102-.05.2-.15.218-.169.03-.34.045-.512.045zm2.232-1.19a.188.188 0 0 1-.158-.29c.218-.341.332-.732.332-1.133 0-.248-.043-.502-.128-.756-.033-.097.012-.217.108-.252.098-.036.197.001.234.097l-.175.066.184-.042c.102.302.153.597.153.886 0 .473-.136.935-.391 1.336a.19.19 0 0 1-.159.088zm-5.322-.797a.184.184 0 0 1-.156-.086 6.513 6.513 0 0 1-.248-.416 9.024 9.024 0 0 1-.652-1.6.189.189 0 0 1 .121-.236.186.186 0 0 1 .235.122c.191.608.395 1.11.623 1.533.072.132.151.263.234.391a.19.19 0 0 1-.157.292zm-9.325-.728a.187.187 0 0 1-.139-.062.19.19 0 0 1 .014-.266 12.605 12.605 0 0 1 1.753-1.308.185.185 0 0 1 .257.06.19.19 0 0 1-.06.259c-.657.414-1.229.841-1.701 1.268a.177.177 0 0 1-.124.049zm3.619-2.318a.186.186 0 0 1-.169-.109.19.19 0 0 1 .09-.25 18.536 18.536 0 0 1 2.018-.808.187.187 0 0 1 .236.12.189.189 0 0 1-.12.238c-.663.221-1.327.487-1.976.792a.188.188 0 0 1-.079.017zm10.143-.075a.182.182 0 0 1-.133-.056 4.382 4.382 0 0 0-1.742-1.076.188.188 0 0 1 .121-.356 4.73 4.73 0 0 1 1.887 1.168.189.189 0 0 1-.133.32zm-5.873-.942a.187.187 0 0 1-.181-.142l-.046-.186a.189.189 0 0 1-.086-.33 13.64 13.64 0 0 0-.469-1.483c-.042-.095-.007-.227.088-.269.088-.041.194-.023.238.075l.024.06c.193.492.35 1.025.484 1.529.614-.1 1.205-.15 1.764-.15l.134.001a.188.188 0 0 1-.002.377l-.132-.001c-.527 0-1.088.047-1.669.139l.037.146a.19.19 0 0 1-.135.229.215.215 0 0 1-.049.005zm-1.278-4.133a.186.186 0 0 1-.181-.143c-.172-.7-.301-1.424-.385-2.155a.185.185 0 0 1 .164-.208.189.189 0 0 1 .206.166c.083.714.21 1.423.378 2.107a.189.189 0 0 1-.136.228.268.268 0 0 1-.046.005zm-.502-4.294a.19.19 0 0 1-.187-.189c.004-.731.051-1.466.139-2.183a.193.193 0 0 1 .207-.164.187.187 0 0 1 .162.21c-.085.703-.13 1.422-.134 2.139a.187.187 0 0 1-.187.187zm.523-4.291c-.145-.03-.206-.132-.181-.233.172-.71.389-1.413.642-2.09a.187.187 0 1 1 .349.133 18.013 18.013 0 0 0-.628 2.047.188.188 0 0 1-.182.143zm1.518-4.044a.188.188 0 0 1-.165-.276c.341-.651.725-1.278 1.14-1.864a.186.186 0 0 1 .261-.044.19.19 0 0 1 .043.262 16.26 16.26 0 0 0-1.114 1.82.183.183 0 0 1-.165.102zm2.493-3.511a.189.189 0 0 1-.135-.318 14.884 14.884 0 0 1 1.61-1.472.188.188 0 0 1 .23.296c-.551.434-1.08.917-1.569 1.435a.188.188 0 0 1-.136.059zm3.378-2.651a.185.185 0 0 1-.162-.096.188.188 0 0 1 .071-.256c.626-.354 1.29-.665 1.971-.924a.185.185 0 0 1 .241.11.189.189 0 0 1-.108.243c-.665.252-1.311.555-1.921.9a.202.202 0 0 1-.092.023zm4.004-1.525a.187.187 0 0 1-.183-.148.187.187 0 0 1 .142-.224 16.293 16.293 0 0 1 2.148-.323c.103-.014.193.068.201.172a.187.187 0 0 1-.171.203c-.715.06-1.42.166-2.098.315a.13.13 0 0 1-.039.005zm6.407-.168a20.516 20.516 0 0 0-2.147-.197.186.186 0 0 1-.179-.195c.004-.104.083-.177.193-.181.706.026 1.433.093 2.16.199a.188.188 0 0 1-.027.374z"></path><path d="M91.899 121.906a.188.188 0 0 1-.187-.188v-6.585c0-.104.084-.188.187-.188s.187.084.187.188v6.585a.188.188 0 0 1-.187.188z"></path><path d="M82.127 110.729c-.148-.033-.207-.136-.18-.237.337-1.271 1.229-1.847 2.092-2.404.603-.389 1.227-.792 1.667-1.437 1.033-1.519.382-4.039.375-4.064a.189.189 0 0 1 .132-.231.185.185 0 0 1 .229.133c.03.11.705 2.712-.427 4.375-.482.709-1.139 1.132-1.773 1.541-.84.543-1.633 1.054-1.933 2.184a.19.19 0 0 1-.182.14z"></path><path d="M101.575 110.729a.186.186 0 0 1-.18-.14c-.3-1.13-1.093-1.642-1.933-2.184-.634-.409-1.291-.833-1.773-1.541-1.132-1.663-.449-4.294-.42-4.405a.183.183 0 0 1 .229-.133c.1.027.159.13.132.231-.007.025-.667 2.575.367 4.094.44.645 1.063 1.048 1.667 1.437.863.557 1.755 1.133 2.092 2.404a.187.187 0 0 1-.181.237z"></path><path d="M110.395 74.602h-2.297a.188.188 0 0 1 0-.376h2.297a.188.188 0 0 1 0 .376z"></path><path d="M100.561 74.602H75.629a.188.188 0 0 1 0-.376h24.932a.188.188 0 0 1 0 .376z"></path><path d="M110.395 83.894H75.629a.188.188 0 0 1 0-.376h34.766a.188.188 0 0 1 0 .376z"></path><path d="M145.183 114.449c-.147-.033-.207-.136-.18-.237l1.185-4.519a.19.19 0 0 1 .228-.134c.1.027.16.13.133.231l-1.185 4.519a.187.187 0 0 1-.181.14z"></path><path d="m161.987 124.746-.09-.002c-.559-.029-.977-.199-1.241-.507-.428-.497-.364-1.222-.318-1.751.012-.134.022-.256.022-.357.004-.602-.73-1.915-1.639-2.394a.19.19 0 0 1-.079-.254.187.187 0 0 1 .252-.08c.996.525 1.844 1.939 1.841 2.73-.001.11-.013.243-.025.388-.043.488-.096 1.096.228 1.471.194.227.524.354.978.378.376.031.667-.11.869-.4.59-.844.316-2.72-.108-3.75-.655-1.587-2.269-1.825-2.932-1.853l-.062-.001c-.922 0-1.358.876-1.362.885a.187.187 0 1 1-.337-.164c.023-.047.571-1.145 1.777-1.096.734.032 2.522.298 3.259 2.085.441 1.068.767 3.113.07 4.112-.258.367-.639.56-1.103.56z"></path><path d="M169.324 103.497c-.153-.038-.209-.143-.179-.243.799-2.684-.59-3.377-2.06-4.112-1.086-.543-2.208-1.104-2.407-2.479-.23-1.59.538-3.211 1.28-4.778.724-1.529 1.473-3.11 1.286-4.642-.367-2.995-6.176-3.855-6.234-3.864a.187.187 0 0 1-.122-.072c-.587-.774-2.772-1.53-4.972-1.387-1.794.121-3.143.824-3.796 1.98-1.749 3.092-.02 6.083-.002 6.112a.19.19 0 0 1-.064.258.188.188 0 0 1-.256-.066c-.019-.032-1.857-3.211-.002-6.491.717-1.269 2.173-2.04 4.096-2.169 2.094-.145 4.454.529 5.245 1.473.73.114 6.097 1.056 6.479 4.179.201 1.641-.571 3.273-1.319 4.851-.75 1.586-1.46 3.083-1.247 4.561.171 1.18 1.158 1.673 2.203 2.196 1.472.736 3.141 1.569 2.252 4.558a.19.19 0 0 1-.181.135z"></path><path d="M153.065 100.599a.186.186 0 0 1-.159-.09c-1.191-1.948.205-3.068.219-3.079a.184.184 0 0 1 .261.033.19.19 0 0 1-.032.264c-.047.037-1.14.931-.13 2.584a.189.189 0 0 1-.159.288z"></path><path d="M168.491 132.882a.187.187 0 0 1-.146-.07c-1.73-2.173-1.02-5.546 1.616-7.68 1.902-1.538 4.147-1.972 6.007-1.169a.188.188 0 0 1-.147.346c-1.735-.753-3.834-.332-5.625 1.116-2.474 2.001-3.157 5.142-1.559 7.151.064.081.051.2-.028.265a.192.192 0 0 1-.118.041z"></path><path d="M172.246 98.407a.19.19 0 0 1-.171-.266c.182-.409.475-1.086.831-1.994a.186.186 0 0 1 .243-.106.188.188 0 0 1 .105.244 47.697 47.697 0 0 1-.838 2.01.185.185 0 0 1-.17.112zm1.59-4.034a.19.19 0 0 1-.177-.251 76.94 76.94 0 0 0 .684-2.05.188.188 0 0 1 .235-.122.188.188 0 0 1 .121.237 73.12 73.12 0 0 1-.686 2.061.191.191 0 0 1-.177.125zm1.302-4.132c-.15-.035-.207-.139-.18-.24.191-.679.376-1.383.547-2.09.025-.1.122-.16.226-.138.1.024.161.127.136.228a61.91 61.91 0 0 1-.55 2.104.185.185 0 0 1-.179.136zm1.025-4.211c-.139-.025-.204-.124-.183-.226.146-.713.279-1.428.393-2.124.015-.102.103-.177.215-.155a.187.187 0 0 1 .153.217c-.115.701-.249 1.42-.396 2.138a.185.185 0 0 1-.182.15zm.704-4.276c-.126-.014-.198-.108-.185-.212.089-.719.161-1.442.217-2.148a.19.19 0 0 1 .2-.173c.103.008.18.099.172.203-.056.712-.129 1.44-.219 2.165a.187.187 0 0 1-.185.165zm.333-4.321a.187.187 0 0 1-.186-.194 45.436 45.436 0 0 0 .001-2.156.188.188 0 0 1 .181-.194c.098.014.188.08.191.183a34.727 34.727 0 0 1-.002 2.178.185.185 0 0 1-.185.183zm-.122-4.33a.187.187 0 0 1-.186-.172 32.101 32.101 0 0 0-.261-2.138.19.19 0 0 1 .156-.215.186.186 0 0 1 .213.156c.109.703.198 1.43.263 2.163a.187.187 0 0 1-.169.204c-.005.002-.01.002-.016.002zm-.673-4.277a.186.186 0 0 1-.181-.145 27.253 27.253 0 0 0-.572-2.073.189.189 0 0 1 .121-.237c.1-.03.203.023.235.121.216.675.411 1.382.58 2.102a.188.188 0 0 1-.183.232zm-1.324-4.117a.187.187 0 0 1-.172-.115 22.768 22.768 0 0 0-.922-1.937.19.19 0 0 1 .076-.255.187.187 0 0 1 .254.076c.34.636.656 1.299.936 1.969a.19.19 0 0 1-.172.262zm-2.037-3.808a.188.188 0 0 1-.155-.083 22.236 22.236 0 0 0-1.275-1.721.19.19 0 0 1 .026-.265.186.186 0 0 1 .263.025c.457.56.894 1.149 1.297 1.75a.19.19 0 0 1-.156.294z"></path><path d="M128.323 59.764a.187.187 0 0 1-.135-.058.189.189 0 0 1 .006-.266c.024-.023.6-.575 1.656-1.423a.185.185 0 0 1 .262.03.19.19 0 0 1-.03.265 26.225 26.225 0 0 0-1.63 1.4.185.185 0 0 1-.129.052zm3.36-2.717a.188.188 0 0 1-.109-.341 43.36 43.36 0 0 1 1.79-1.223.186.186 0 0 1 .258.057.189.189 0 0 1-.057.26c-.601.389-1.198.798-1.773 1.212a.184.184 0 0 1-.109.035zm3.62-2.344a.188.188 0 0 1-.162-.094.19.19 0 0 1 .069-.257 41.12 41.12 0 0 1 1.9-1.037.188.188 0 0 1 .168.335c-.632.324-1.265.67-1.881 1.028a.19.19 0 0 1-.094.025zm3.833-1.964a.188.188 0 0 1-.076-.36 37.867 37.867 0 0 1 2.001-.824.188.188 0 0 1 .131.353c-.656.249-1.323.523-1.979.816a.195.195 0 0 1-.077.015zm22.935-.693a.184.184 0 0 1-.075-.016 26.578 26.578 0 0 0-1.989-.777.188.188 0 0 1 .121-.356c.679.234 1.357.498 2.017.787a.188.188 0 0 1 .096.248.184.184 0 0 1-.17.114zm-18.91-.824a.189.189 0 0 1-.055-.368 32.402 32.402 0 0 1 2.087-.569c.102-.02.2.039.224.14a.187.187 0 0 1-.139.226c-.689.162-1.382.352-2.064.562a.134.134 0 0 1-.053.009zm14.847-.572a28.157 28.157 0 0 0-2.133-.44.19.19 0 0 1-.155-.216c.017-.102.113-.178.215-.155.706.116 1.419.264 2.119.44a.188.188 0 0 1-.046.371zm-10.663-.413a.189.189 0 0 1-.03-.374 28.046 28.046 0 0 1 2.146-.265.186.186 0 0 1 .201.172.188.188 0 0 1-.171.203c-.699.059-1.412.147-2.118.262-.008.002-.018.002-.028.002zm6.425-.282a26.186 26.186 0 0 0-2.017-.078h-.129a.188.188 0 0 1 0-.376h.129c.68 0 1.364.026 2.031.079.103.008.18.098.172.202a.186.186 0 0 1-.186.173z"></path><path d="M167.904 58.551c-1.683 0-3.053-1.38-3.053-3.077s1.37-3.077 3.053-3.077c1.683 0 3.052 1.38 3.052 3.077.001 1.697-1.368 3.077-3.052 3.077zm0-5.778c-1.477 0-2.679 1.212-2.679 2.7s1.202 2.701 2.679 2.701 2.678-1.212 2.678-2.701-1.201-2.7-2.678-2.7z"></path></g></g>
</svg>
</g></svg></svg>